<svg version="1.1" xmlns="http://www.w3.org/2000/svg" xmlns:xlink="http://www.w3.org/1999/xlink" viewBox="0 0 302.4 84.3">
<style>
.st0 { fill: #fff; }
.st1 { fill: #ff9528; }
</style>
<path class="st0" d="M98.2,0h-20L51.4,69.2H19.7V49.2l18.6,0.2V34.9l-18.6-0.2V15h30.4c2.3,0,4.2-1.9,4.2-4.2V0H0v84.3h60.8c2.8,0.1,5.3-1.6,6.4-4.2l0.8-2.2l0.7-2l0.8-2.4c0,0,18.1-49.7,18.7-52c0.7,2.3,18.7,52.1,18.7,52.1l2.3,6.6c0.4,1.2,1.2,2.3,2.3,3c1.2,0.8,2.7,1.3,4.2,1.2h15.1L98.2,0z"></path>
<path class="st1" d="M287.2,0c-1.5-0.1-2.9,0.4-4.1,1.3c-1,0.7-1.8,1.8-2.2,2.9l-0.8,2.2l-0.7,2l-0.8,2.4c0,0-18.1,49.7-18.7,52.1c-0.7-2.3-18.7-52.1-18.7-52.1l-2.3-6.6c-0.4-1.2-1.2-2.3-2.3-3c-1.2-0.9-2.7-1.3-4.2-1.3h-23.2c-0.6,0-1.2,0.1-1.7,0.3c-0.5,0.2-1,0.5-1.4,0.9c-0.5,0.5-0.9,1.1-1.2,1.7l-26.2,50.7L152.4,2.9c-0.3-0.6-0.7-1.2-1.2-1.7c-0.4-0.4-0.9-0.7-1.4-0.9c-0.5-0.2-1.1-0.3-1.7-0.3h-17.3v84.3h16.9v-56L169.9,71h17.5l22-42.7c-0.2,2.8-0.4,5.3-0.4,7.7v48.2h17.4V23.8l23.4,60.4h20L302.4,0H287.2z"></path></svg>